<?xml version="1.0" encoding="utf-8"?>
<!-- Generator: Adobe Illustrator 16.0.0, SVG Export Plug-In . SVG Version: 6.00 Build 0)  -->
<!DOCTYPE svg PUBLIC "-//W3C//DTD SVG 1.1//EN" "http://www.w3.org/Graphics/SVG/1.1/DTD/svg11.dtd">
<svg version="1.1" xmlns="http://www.w3.org/2000/svg" xmlns:xlink="http://www.w3.org/1999/xlink" x="0px" y="0px" width="308px"
	 height="65px" viewBox="0 0 308 65" enable-background="new 0 0 308 65" xml:space="preserve">
<g id="Capa_1">
</g>
<g id="Capa_2">
	<g>
		<g>
			<path fill="#305C92" d="M86.083,4.465c0-1.036,0.011-1.814,0.034-2.333C86.142,1.613,86.284,1.236,86.543,1
				c0.259-0.235,0.682-0.364,1.273-0.389c0.588-0.023,1.449-0.035,2.579-0.035c1.131,0,1.992,0.012,2.579,0.035
				C93.566,0.636,93.99,0.765,94.249,1c0.261,0.236,0.4,0.613,0.425,1.132c0.025,0.519,0.034,1.297,0.034,2.333
				c0,1.038-0.009,1.816-0.034,2.334c-0.024,0.519-0.164,0.896-0.425,1.131c-0.259,0.236-0.683,0.365-1.274,0.389
				c-0.587,0.024-1.448,0.035-2.579,0.035c-1.13,0-1.991-0.011-2.579-0.035c-0.592-0.023-1.015-0.152-1.273-0.389
				c-0.259-0.234-0.401-0.612-0.426-1.131C86.094,6.281,86.083,5.503,86.083,4.465z M94.708,12.455v35.848h-8.625V12.455H94.708z"/>
			<path fill="#305C92" d="M115.145,11.535c0.139,0,0.646,0.025,1.518,0.071c0.872,0.047,1.896,0.247,3.076,0.602
				c1.178,0.353,2.427,0.908,3.745,1.661c1.321,0.755,2.548,1.838,3.68,3.252c1.131,1.414,2.062,3.194,2.792,5.339
				c0.729,2.146,1.098,4.798,1.098,7.955v17.888h-8.629V30.415c0-1.037-0.095-2.098-0.283-3.183c-0.188-1.084-0.542-2.073-1.06-2.97
				c-0.52-0.895-1.249-1.638-2.192-2.228c-0.941-0.589-2.19-0.884-3.744-0.884c-1.559,0-2.809,0.295-3.75,0.884
				c-0.943,0.59-1.674,1.333-2.191,2.228c-0.52,0.896-0.872,1.886-1.061,2.97c-0.189,1.085-0.283,2.146-0.283,3.183v17.888h-8.625
				V30.415c0-3.157,0.363-5.81,1.096-7.955c0.73-2.145,1.66-3.925,2.793-5.339c1.131-1.414,2.355-2.497,3.676-3.252
				c1.32-0.753,2.568-1.309,3.748-1.661c1.177-0.354,2.191-0.555,3.039-0.602C114.436,11.561,114.955,11.535,115.145,11.535z"/>
			<path fill="#305C92" d="M144.203,20.869v15.768c0.141,0.564,0.399,1.085,0.776,1.555c0.329,0.378,0.789,0.731,1.38,1.062
				c0.588,0.33,1.355,0.494,2.296,0.494h5.374v8.556h-8.626c-1.837-0.188-3.489-0.707-4.949-1.556
				c-1.226-0.707-2.346-1.756-3.358-3.146c-1.014-1.389-1.521-3.311-1.521-5.762v-35h8.629v9.616h8.132v8.414H144.203z"/>
			<path fill="#305C92" d="M191.222,25.818c0.092,0.707,0.177,1.439,0.247,2.191c0.069,0.755,0.104,1.556,0.104,2.405v1.272h-24.745
				c0.093,0.802,0.212,1.614,0.353,2.439c0.143,0.824,0.378,1.638,0.707,2.438c0.52,1.228,1.318,2.31,2.404,3.253
				c1.085,0.943,2.593,1.414,4.525,1.414s3.441-0.471,4.525-1.414c1.085-0.943,1.884-2.025,2.404-3.253h9.192
				c-0.378,1.65-0.91,3.088-1.592,4.313c-0.683,1.227-1.438,2.286-2.261,3.182c-0.826,0.896-1.711,1.638-2.654,2.227
				c-0.942,0.59-1.861,1.073-2.756,1.451c-2.168,0.848-4.454,1.271-6.859,1.271c-3.156-0.047-5.965-0.707-8.414-1.979
				c-1.035-0.565-2.063-1.283-3.075-2.157c-1.015-0.871-1.91-1.967-2.687-3.287c-0.777-1.318-1.403-2.899-1.873-4.738
				c-0.473-1.837-0.707-3.981-0.707-6.433s0.234-4.597,0.707-6.435c0.47-1.84,1.096-3.43,1.873-4.773
				c0.776-1.343,1.672-2.463,2.687-3.358c1.013-0.896,2.04-1.626,3.075-2.191c2.449-1.319,5.258-2.026,8.414-2.122
				c2.593,0.096,5.021,0.637,7.283,1.627c0.944,0.424,1.897,0.979,2.864,1.661c0.965,0.685,1.86,1.532,2.686,2.546
				c0.826,1.014,1.557,2.217,2.192,3.605C190.478,22.366,190.938,23.98,191.222,25.818z M182.311,25.818
				c-0.234-0.753-0.527-1.509-0.883-2.263c-0.354-0.754-0.836-1.438-1.45-2.05c-0.612-0.612-1.343-1.096-2.19-1.45
				c-0.85-0.354-1.84-0.53-2.971-0.53s-2.12,0.177-2.971,0.53c-0.848,0.354-1.579,0.838-2.19,1.45
				c-0.615,0.612-1.107,1.296-1.485,2.05c-0.379,0.754-0.66,1.51-0.848,2.263H182.311z"/>
			<path fill="#305C92" d="M204.867,0.576v47.727h-8.626V0.576H204.867z"/>
			<path fill="#305C92" d="M218.44,0.576v47.727h-8.626V0.576H218.44z"/>
			<path fill="#305C92" d="M256.34,25.818c0.093,0.707,0.175,1.439,0.244,2.191c0.072,0.755,0.107,1.556,0.107,2.405v1.272h-24.746
				c0.093,0.802,0.211,1.614,0.354,2.439c0.14,0.824,0.375,1.638,0.707,2.438c0.519,1.228,1.317,2.31,2.402,3.253
				c1.084,0.943,2.594,1.414,4.525,1.414c1.933,0,3.44-0.471,4.525-1.414s1.885-2.025,2.404-3.253h9.191
				c-0.378,1.65-0.908,3.088-1.592,4.313c-0.683,1.227-1.438,2.286-2.261,3.182c-0.826,0.896-1.709,1.638-2.651,2.227
				c-0.943,0.59-1.864,1.073-2.756,1.451c-2.172,0.848-4.458,1.271-6.861,1.271c-3.158-0.047-5.964-0.707-8.413-1.979
				c-1.038-0.565-2.063-1.283-3.075-2.157c-1.015-0.871-1.909-1.967-2.688-3.287c-0.778-1.318-1.404-2.899-1.873-4.738
				c-0.474-1.837-0.708-3.981-0.708-6.433s0.234-4.597,0.708-6.435c0.469-1.84,1.095-3.43,1.873-4.773
				c0.778-1.343,1.673-2.463,2.688-3.358c1.012-0.896,2.037-1.626,3.075-2.191c2.449-1.319,5.255-2.026,8.413-2.122
				c2.593,0.096,5.021,0.637,7.283,1.627c0.942,0.424,1.897,0.979,2.864,1.661c0.966,0.685,1.862,1.532,2.687,2.546
				c0.823,1.014,1.557,2.217,2.193,3.605C255.597,22.366,256.055,23.98,256.34,25.818z M247.429,25.818
				c-0.235-0.753-0.53-1.509-0.883-2.263c-0.354-0.754-0.838-1.438-1.45-2.05c-0.611-0.612-1.344-1.096-2.19-1.45
				c-0.85-0.354-1.839-0.53-2.972-0.53c-1.131,0-2.122,0.177-2.969,0.53c-0.848,0.354-1.58,0.838-2.19,1.45
				c-0.615,0.612-1.11,1.296-1.486,2.05c-0.378,0.754-0.661,1.51-0.85,2.263H247.429z"/>
			<path fill="#305C92" d="M277.83,11.535c2.971,0,5.493,0.424,7.567,1.273c2.074,0.849,3.782,2.085,5.126,3.712
				c1.344,1.626,2.32,3.605,2.934,5.939c0.612,2.333,0.92,4.984,0.92,7.955v16.12c0,1.414-0.084,2.723-0.248,3.924
				c-0.165,1.202-0.389,2.321-0.672,3.358c-0.424,1.557-1.121,2.981-2.086,4.278c-0.967,1.296-2.202,2.415-3.71,3.358
				c-1.51,0.942-3.302,1.672-5.375,2.191c-2.075,0.52-4.456,0.778-7.142,0.778l-9.402-0.071v-7.989h7.636
				c3.204,0,5.656-0.33,7.352-0.989c1.698-0.661,2.936-1.45,3.713-2.37c0.778-0.918,1.226-1.851,1.343-2.791
				c0.118-0.944,0.177-1.675,0.177-2.193v-4.666l1.557-2.051c-0.803,1.979-1.815,3.489-3.04,4.525
				c-1.227,1.037-2.429,1.792-3.605,2.263c-1.368,0.519-2.781,0.824-4.243,0.919c-2.924-0.047-5.516-0.707-7.777-1.979
				c-0.99-0.565-1.946-1.283-2.864-2.157c-0.92-0.871-1.746-1.967-2.476-3.287c-0.73-1.318-1.319-2.899-1.768-4.738
				c-0.447-1.837-0.669-3.981-0.669-6.433s0.234-4.597,0.707-6.435c0.469-1.84,1.095-3.43,1.872-4.773
				c0.776-1.343,1.672-2.463,2.687-3.358c1.014-0.896,2.038-1.626,3.075-2.191C271.867,12.338,274.675,11.631,277.83,11.535z
				 M285.962,30.415c0-1.273-0.083-2.534-0.247-3.783s-0.519-2.38-1.062-3.395c-0.54-1.013-1.354-1.826-2.438-2.439
				c-1.085-0.611-2.547-0.919-4.386-0.919c-1.742,0-3.146,0.354-4.206,1.061c-1.06,0.708-1.872,1.591-2.439,2.651
				c-0.563,1.062-0.942,2.204-1.13,3.429c-0.189,1.228-0.284,2.358-0.284,3.396c0,1.036,0.095,2.168,0.284,3.393
				c0.188,1.227,0.566,2.369,1.13,3.43c0.567,1.061,1.38,1.944,2.439,2.651s2.464,1.061,4.206,1.061
				c1.744,0,3.147-0.354,4.209-1.061c1.06-0.707,1.885-1.591,2.475-2.651c0.587-1.061,0.977-2.203,1.166-3.43
				C285.867,32.583,285.962,31.451,285.962,30.415z"/>
			<path fill="#305C92" d="M299.113,4.465c0-1.036,0.011-1.814,0.035-2.333c0.023-0.519,0.165-0.896,0.424-1.132
				c0.259-0.235,0.684-0.364,1.273-0.389c0.588-0.023,1.449-0.035,2.58-0.035c1.133,0,1.991,0.012,2.581,0.035
				c0.59,0.024,1.014,0.153,1.272,0.389c0.26,0.236,0.401,0.613,0.424,1.132c0.025,0.519,0.037,1.297,0.037,2.333
				c0,1.038-0.012,1.816-0.037,2.334c-0.022,0.519-0.164,0.896-0.424,1.131c-0.259,0.236-0.683,0.365-1.272,0.389
				c-0.59,0.024-1.448,0.035-2.581,0.035c-1.131,0-1.992-0.011-2.58-0.035c-0.59-0.023-1.015-0.152-1.273-0.389
				c-0.259-0.234-0.4-0.612-0.424-1.131C299.124,6.281,299.113,5.503,299.113,4.465z M307.74,12.455v35.848h-8.627V12.455H307.74z"
				/>
		</g>
		<path fill="#C85862" d="M29.558,49.351H17.789c-5.754,0-10.438-4.681-10.438-10.436V21.77c0-5.755,4.685-10.437,10.438-10.437
			h11.769c5.754,0,10.436,4.682,10.436,10.437v17.146C39.993,44.67,35.312,49.351,29.558,49.351z M17.789,18.502
			c-1.803,0-3.27,1.466-3.27,3.268v17.146c0,1.802,1.467,3.268,3.27,3.268h11.769c1.802,0,3.268-1.466,3.268-3.268V21.77
			c0-1.802-1.466-3.268-3.268-3.268H17.789z"/>
		<path fill="#C85862" d="M72.091,11.354c-4.399,9.867-9.089,19.992-12.05,25.9c-2.654-6.058-6.9-16.145-10.936-25.9h-7.758
			c14.161,34.35,15.165,35.357,15.768,35.959c0,0,0.57,0.989,1.467,1.012c0.728,0.018,1.804,0,1.804,0
			c2.175-0.406,3.487-0.656,19.55-36.971H72.091z"/>
		<path fill="#C85862" d="M4.447,38.915V21.77c0-5.607,4.447-10.183,9.999-10.414v-0.022h-3.753
			c-5.755,0-10.434,4.682-10.434,10.437v17.146c0,5.755,4.679,10.436,10.434,10.436h3.753v-0.021
			C8.895,49.098,4.447,44.522,4.447,38.915z"/>
		<path fill="#C85862" d="M59.926,31.028c2.813-6.077,5.407-11.731,8.988-19.695h-4.557c-2.79,6.254-4.593,10.191-6.62,14.567
			C58.515,27.736,59.246,29.449,59.926,31.028z"/>
	</g>
</g>
</svg>
